<?xml version="1.0" encoding="UTF-8"?>
<svg id="Layer_2" data-name="Layer 2" xmlns="http://www.w3.org/2000/svg" width="854.96" height="469.97" viewBox="0 0 854.96 469.97">
  <defs>
    <style>
      .cls-1 {
        fill: #d6caae;
      }
    </style>
  </defs>
  <g id="Layer_1" data-name="Layer 1">
    <g>
      <path class="cls-1" d="M474.1,96.13c-1.11-.98-2.27-1.78-3.54-2.45l-2.74-1.44-1.39,3.76-2.35,1.7-1.84,6.22-1.03,6.56-1.36,9.64-1.34,7.45c-.27,1.52-.24,2.85-.76,4.24.25,1.54.24,3.04-.18,4.71-.4.73-.1,1.8.79,1.95,1.53-2.82,2.95-5.66,3.68-8.76l2.87-12.11c.7-2.97,1.85-5.63,3.29-8.3l2.53-4.69c.76-1.4,3.4-2.49,4.62-1.18l2.27,2.42c.91.97,2.19,2.95,2.16,4.4l-.13,7.14-.71,6.44-.42,4.88-.43,5.59c-.23,2.93-.08,5.42.44,8.31l.63,3.47c1.99.83,3.38-.2,4.31-1.68,2.05-3.3,3.04-6.6,4.02-10.39l1.3-3.47,1-3.11,4.19-10.13c.83-2.01,2.03-4.17,1.76-6.49-.12-1.03,0-1.86.36-2.71l-.78-2.41-.76-3.12c.2-1.64.06-2.26-.7-3.77-.59-1.17-.09-3.52.02-4.93-.19-.52-.66-1.64-.52-2.15.31-1.2.02-2.09-.25-3.36-.41-1.91.84-5.53,2.43-6.69s2.68-1.89,3.98-3.43l3.3-.27c1.13-.86,2.52-1.32,3.61-.88l-.05,2.16c-.01.6-1.89.04-4.07,1.86-.93.78-1.39,1.26-1.16,2.67.14.83-.51,1.75-.76,2.45-1.38,3.91-.82,8.14.14,12.06-.74,1.87-.12,3.51,1.63,4.34.63.67,1.74,1.18,2.7.99l5.08-1c3.25-1.17,4.33-4.55,4.94-7.52s.94-5.68,1-8.77c.12-5.98-2.95-7.18-8.04-9.44,3.89-.55,8.53,1.17,9.02,4.23l.57,3.51.57,4.05c.2,1.39-.73,3.43-.96,4.85-.55,3.45-1.47,6.38-2.96,9.49-.61,1.29-1.65,2.08-3.08,2.3l-4.24.65-3.83.29c-1.1,1.13-.14,3.22,1.48,3.88l.18,3.85c1.23,3.16,1.86,6.03,2.43,9.35l1.82,4.31,2.29,7.7c.76.58,2.44-.29,3.3-.36,2.72-.24,5.03-1.3,7.63-2.21l7.69-2.7.4.64-7.23,2.89-4.22,2.5-6.92,2.46-.29,3.62.18,2.79.18,3.3.32,6.55-.79,7.6c-.31,2.96-.89,5.79-2.37,8.28-1.69,2.85-3.1,5.67-5.33,8.21-1.69,1.93-3.66,4.23-6.3,4.77l-5.34,1.08c-2.45.5-4.99.76-7.35.18-2.05-.5-3.3-2.41-2.98-4.45-1.48-3.51-.84-7.07.8-10.19-.78-3.17.19-6.41,1.96-9.19l.78-2.94,1.65-.43c-.24-1.73.24-2.26.92-3.34,1.3-2.05,2.36-4.03,4.9-4.86.32-1.07,1.02-3.15,1.93-3.51l3.94-1.54,2.21-2.48c1.22-1.37.63-1.94.53-3.22l-.51-6.73-.58-3.83-.42-2.65-.81-3.32c.09-2.31.16-4.52-.96-6.73-.57.04-1.46.86-1.45,1.37.02.7.57,1.37,1.44,2.04l-.78,2.57c-1.81.07-2.71,1.17-3.03,2.96-.14.79-.76,1.75-1.09,2.6l-1.02,2.63c-1.2,3.09-2.14,5.94-3.48,8.97l-1.77,4c-.4.9-1.57,2.01-2.24,2.87-1.98,2.55-4.54,2.28-7.49,2.04-1.84-.15-2.92-.3-4.39-1.43-2.22-1.69-4.24-.81-5.63-8.98-1.11-1.32-1.43-2.97-1.23-4.72l-.66-7.41-1.83,8.01-.7,3.76c-.45,2.45-1.23,5.36-3.56,6.32-3.2,1.33-5.9-.16-7.66-2.67-1.35-1.92-1.74-3.73-2.64-6.44-.78,1.88-.77,3.61-1.52,5.51l-1.55,3.91c-1.55,3.91-3.88,9.41-7.16,11.68-1.23.72-2.39,1.06-3.78.93-2.09,1.23-4.13,1.05-5.93-.54-.73-.65-1.07-1.39-1.3-2.45l-1.36-6.37-.26-5.74.28-5.77.44-7.99.25-3.8.41-3.5.93-6.22.14-5.14.5-7.53.17-5.64c.02-.65-1.48-1.28-2.07-1.27s-1.75.46-2.15,1.03l-6.21,8.88c-.72,1.02-1.43,2.34-1.15,3.63.97,4.47.1,8.39-.8,12.67l-.98,4.65-.71,3.08-2.03,8.54-1.3,4.94c-.79,3.02-.25,6.26-2.06,8.89-1.39,2.02-2.94,4.14-5.61,4.12l-2.75-1.66-1.21-6.19.64-3.67.46-5.12c.14-1.5.18-2.58,1.17-3.98-2.64-.9-2.61-5.74-1.89-9.08l3.13-14.56.57-5.92.02-2.37c.02-2.14-.19-3.8-1.14-5.89l-1.24,1.93c-1.46,2.27-2.57,4.61-3.42,7.16-.79,1.42-1.35,2.86-1.75,4.51-.96.41-1.58,1.36-1.25,2.44l-.03,1.27c0,.27-.44.47-.71.52-.37.02-.62.03-.6.05,0,0-.19.48-.23.62-.06.16.54.08.89.06l-.63,4.8c-.33,2.53-.68,5-1.61,7.46-1.38,3.66-2.52,7.2-3.11,11.06-.9,5.98-2.94,9.45-3.71,14.69l-.5,3.45c-.04.26-.24,1.12-.46,1.06l-1.25-.34-.22,1.28c-.07.4.76.89,1.19,1.14l-1.2,4.9-.91,4.73-.82,3.91c-.72,3.44-1.98,6.27-4.52,8.78-.72.71-1.62,2.21-2.72,2.48-1.65.41-3.37-1.62-2.98-3.06.22-.83.26-1.55.14-2.43l-1.42.88c-.48.3-2.92-5.58-2.27-9.57.1-.63-.63-1.62-.85-2.2-.7-1.88.16-4.32.3-6.32l.35-4.94.56-3.55c.41-2.62.89-5.04,1.77-7.61l2.4-7,.33-2.23,1.62-8.9.49-2.42c.02-.11-.38-.55-.49-.49l-.83.52c-2.24,3.63-3.7,7.51-4.75,11.66l-1.67,5.92-1.1,4.15-2.88,6.58-1.96,7.85c-.55,2.21-.31,4.31-2.08,6.03-.58.56-.57,2.41-.89,3.21l-2.13,5.32-3.07,6.67-3.54,6.64c-.95,1.78-2.86,3.19-4.19,4.73-1.02,1.18-1.9,1.95-3.2,2.93-.83.62-2.01,2.21-3.14,2.28-2.25.15-4.2-1.06-5.56-2.59l-2.52-2.83c-.56-.62-.89-1.69-1.26-2.5-1.92-4.12-3.1-11.1-.62-9.02.18.26.35-1.14.05-1.44s-1.02-.17-1.88-.02l.68-2.97-.49-2.8c-.41-2.31-.93-4.62-.67-7.09l.35-3.42c.01-.5-.91-.57-.87.04l-7.43,9.25.98,7.77.73,5.04.62,4.9c.12.96,0,2.84-.12,4.01-.73,7.6-5.1,18.1-11.24,22.38-2.3,1.61-5,2.54-7.56,3.4-5.91,1.97-14.03.53-16.4-4.4-.89-1.85-.33-4.03-.11-5.99.14-1.29.02-2.94.49-4.06l4.57-10.88,2.14-2,3.26-4.2c4.68-6.03,10.9-10.03,11.86-11.43.71-1.04.84-1.68.61-3.02l-.89-5.2-2.13-9.46-1.37-9.18c-.03-.18-.36-.76-.42-.88-.08-.17-.6.21-.71.41l-3.59,6.47-1.93,4.48-5.68,9.74-1.49,2.63-4.41,7.47-2.09,3.63c-2.04,3.54-8.73.83-12.44-4.9-.83-1.28-2.01-2.72-2.48-4.18l-1.93-6.01-.95-10.99.16-.81c.04-.23-.83-.05-.93.17l-1.59,3.54-1.51,3.34-2.95,8.38-1.23,3.29c-1.9,9.32-4.78,18.11-8.02,27.03l-1.78,5.69c-1.5,1.76-3.17,2.53-5.22,1.67-1.81.48-3.75.6-5.59.41-2.06.17-3.1-.79-4.03-2.51l-2.97-5.49-2.12-7.01c-.4-1.33-.79-2.69-.73-4.17l.16-3.79c.14-3.23-.09-6.07.83-9.26l1.47-5.1,1.58-4.96c.82-2.57,1.86-3.44,2.5-5.3,1.03-3,2.99-5.33,4.89-7.85l2.34-4.36,2.72-5.92c1.36-2.96,3.14-5.42,5.57-7.69-1.55.32-2.54.39-3.77.17l-7.49-1.32c-1.01-.18-2.86-.35-3.72.12-.48.26-.69,1.73-.9,2.24l-3.15,7.64-3.05,7.82-3.32,8.62c-.61,1.59-1.13,2.93-1.93,4.5l-1.49,2.92-2.74,9.43-3.03,10.06-2.16,8.59-2.16,6.44c-.88,3.04-1.28,7.25-5.33,7.98-2.21-.44-4-3.46-4.22-5.68l-2.52-2.09c-.31-3.96-2.27-7.23-2.3-11.23l-.05-5.22c-.01-1.11.05-2.17.28-3.22l1.76-8.17,1.99-8.17,2.19-11.63c.39-2.05-.12-4.25-.93-6.24l-.91-.11c-2.05,2.71-4.01,5.54-5.52,8.6l-1.15,2.34-2.41,5.76-2.83,12.14-2.9,12.11-2.97,10.55c-1.26,4.48-1.91,9.25-3.83,13.55-.75.23-1.94.71-2.27,1.1-.1,1.09-.27,2.23-.69,2.89-.47.73-1.78,1.02-2.78,1.18-.06.33-.06,1.54-.46,1.58l-2.12.24-.81-6.65-.42-6.31.12-6.02.11-3.31.42-4.55c.07-.71-1.12-1.9-1.27-2.59-.24-1.12-.41-3.28-.24-4.38l.59-4.06c.02-.16-.66-.72-.72-.57l-.29.69-2.92,7.49-1.97,5.21-4.21,9.34-1.98,4.42c-.82,1.45-1.3,2.96-1.21,4.71l-5.99,13.14-2.93,5.74-3.74,6.72-2.76,4.82-4.44,7.91-7.1,10.52c-1.44,2.13-3.86,3.7-5.7,5.54l-5.08,7.08c-1.77,2.46-4.54,3.75-6.92,5.24l-2.59,1.62-5.61,3.39-5.47,3.01-3.05,1.09-7.01-1.86-4.71-1.88c-3.76-1.5-6.87-3.79-10.28-5.75-3.12-1.79-5.67-3.56-7.81-6.55l-2.61-2.84-2.88-3.33-2.21-1.8-3.66-4.22-2.37-2.54-3.7-4.27c-.18-1.02-.18-3.1-.94-3.66-1.89-1.37-2.65-3.47-3.46-5.49l-1.48-3.7c-.98-2.44-1.03-4.58-1.3-7.18l-.47-4.56-.43-5.96-1.52-10.8c-.53-3.8-.8-7.11-.4-10.98.16-1.53-.77-3.85.05-5.23l.57-.97c.14-.24-.93-.69-1-.96-.5-2.05-.28-7.26,1.25-8.12l-.66-1.24c-.2-.37.09-1.36.37-1.67l.65-.73c.12-.14-.89-.41-.99-.57-.53-.8-.03-2.66.97-3.55l-.22-3.51.37-4.99.46-3.98.57-4.05.15-2.81.46-6.23c.12-1.62.82-3.47,1.11-5.09l1.37-7.59,1.27-6.25c.29-1.44.6-2.93,1.23-4.15,1.07-2.06.99-4.35,1.4-6.57l1.12-6.06.37-2.38c.1-.67.27-2.16.55-2.77l1.4-3c.17-.37.14-1.31.09-1.67-.08-.53.62-1.41.78-1.87l1.14-3.32.54-2.35c.41-1.79.77-3.22,2.53-3.97-.72-1.07-.68-1.68-.46-2.67l1.04-4.66c1.32-1.93.2-3.19,2.14-4.06-.3-1.28-.07-2.43.64-3.63l1.44-2.42,1.22-2.48,8.4-17,2.66-5.21c2.14-4.19,3.82-8.38,6.6-12.2l2.51-3.46,3.79-5.21,1.8-2.71,2.84-3.59,2.44-2.44,4.85-4.52,5.06-4.68c1.68-1.55,3.36-3.17,4.75-4.94,1.96-2.49,4.22-3.49,6.86-4.95,1.57-.87,3.16-2.71,4.76-3.73l3.22-2.05c2.18-1.39,4.58-1.55,7.05-2.06,3.56-.74,6.96-1.44,10.67-1.26l5.6.27c5.16.25,10.14.49,14.91,2.53,1.13.48,2.74,1.18,3.45,2.11l4.61,6,3.59,5.37.72,2.62.81,3.76c.21.96-.72,2.97-.64,3.97.13,1.59.38,3.18-.05,4.51l-1.06,3.23-2.32,6.28-3.64,7.84c-.7,1.51-1.35,2.53-2.81,3.3l-1.67,2.38-2.38,3.29c-.92,1.27-2.19,2.08-3.39,3-1.97,1.51-3.56,3.28-6.43,2.57-1.65.22-3.46-.4-4.47-1.67-1.69.36-3.25-.52-3.57-2.56.64-.57,1.61-.73,2.39-.31.55.3.9,1.49.96,2.24l3.58-.16c3.48-.74,5.89-3.37,8.23-5.79,1.87-1.93,3.63-3.76,4.62-6.27l2.66-6.71,1.08-3.7,1.44-4.7c1.23-4.02,1.95-8.5,1.13-12.74-.4-2.09-1-4.38-2.07-6.2l-2.21-3.75c-1.12-1.9-3.46-2.99-5.4-3.96-4.38-2.2-8.85-2.86-13.78-2.76-5.21.11-9.48,3.15-13.49,6.34-1.54,1.22-2.69,2.14-3.82,3.77-.76,1.09-1.99,2.42-3.03,3.22-1.53,1.18-2.05,2.37-2.86,4.03-2.33,4.79-6.6,8.2-9.2,12.73l-8.07,14.07c-.9.11-2.05.6-2.17,1.16-.14.69-.03,1.63.15,2.64l-1.35,2.25c-.32,2.21-1.46,3.56-3.46,4.56l-.81.41c-.17.09.27.7.42.86,1.2,1.24.3,2.58-.28,3.94l-2.77,6.52-2.33,7.01-2.54,8.11-1.78,6.75-.99,3.55-3.72,12.72-1.48,6.07-1.46,4.22c-.72,2.08-.67,4.74-1.05,7.01l-1.91,11.5-1.53,8.9c-.23,1.33-1.18,3.02-1.73,4.1.18,3.08.4,6-.13,9.02l-1.84,10.51-.76,3.76-1.28,6c-1.15,5.37-2.39,10.61-2.99,16.11l-.91,8.42-.26,9.06-.19,11.03.5,8.89.52,6.46.44,4.26.46,2.73c.22,6.42,1.66,12.31,3.09,18.51.85,3.7,2.07,6.94,4.54,9.97,3.2,3.9,7.14,7.1,11.48,9.78l5.13.85c3.23.54,6.32-1.42,9.1-2.89,1.97.09,3.66-.76,4.91-2.19,1.41-.02,2.24-.48,3.19-1.29l4.66-4.05c.58-.51,1.53-1.09,2.25-1.49l6.62-8.35,3.19-3.06,6.81-9.13,5.19-6.73,4.7-6.27,2.29-2.84,1.59-3.04,3.44-5.45,3.07-5.56c1.46-2.66,2-5.44,3.18-8.21l3.54-8.34c.88-2.07,1.69-3.87,2.22-6.08l1.3-5.39,2.82-8.73,2.79-8.59,2.31-7.48,1.52-7.36c.35-1.67.38-3.11,1.04-4.72.55-1.36.2-3.77.68-5.23l1.03-3.11,1.82-7.23.83-3.84,1.05-5.63.91-5.96.84-4.04,1.45-7.29,1.13-4.89.99-4.61,1.71-9.89,1.1-7.2c1.36-6.01,2.92-11.76,3.74-17.88l.59-4.39c.78-2.37,1.22-4.38,1.42-6.86l.33-4.17c.22-2.78,1.3-5.55,2.19-8.2l2.32-6.91,2.67-7.18.8-1.56c.4-.77.6-1.25.76-2.09.54-2.84,1.89-5.49,3.25-8.14,1.28-2.5,2.32-5.2,4.4-7.17l2.27-2.14,2.65-1.6c2.44-1.47,7.38-1.91,9.71-1.26,2.05.57,4.57,2.3,5.86,4.07,1.74,2.39,2.66,5.6,3.1,8.46l.48,3.14.22,3.77c.13,2.18.7,4.4.45,6.6-.92,8.12-3.46,15.65-6.26,23.25l-3.15,8.52-5.01,11.43-3.6,9.12-5.66,13.82-3.64,9.24-4.29,9.93-5.14,11.83-2.55,4.95-1.49,2.91c-3.03,4.45-4.77,9.09-5.18,14.41-.1,1.35-.71,2.42-.39,4.12l2.03-2.61c1.32-1.69,2.98-3.62,4.8-4.82l3.38-2.22c1.82-1.2,3.19-.94,5.09-.82,2.2.14,3.76.46,5.54,1.77,1.5,1.1,3.09,2.09,4.13,3.8,1.63,2.67,1.78,5.94,1.46,9.03l-.48,4.65-.11,5.07-.81,7.72-2.01,10.41c-.47,2.42-1.29,5.39-1.26,7.71,0,.3,1.08-.12,1.16-.37l2.13-6.26c.42-1.24.52-2.1.96-3.34l6.48-18.25,3.85-9.67,4.39-10.54,2.26-6.4,3.45-8.13-5.63-3.2-2.01-2.89c-.96-1.38-1.12-3.8-1.83-5.24-.85-1.71-1.45-2.8-1.01-4.79l.89-4.01c.7-3.16,1.66-6.2,3.48-8.87l3.05-4.5c.61-.89,1.45-1.17,2.57-1.72,1.34-.66,3.25-2.85,5.22-1.82,5.19,2.69,7.87,8.93,6.67,14.85l-3.24,9.74-3.56,8.65c-.11.27-.21,1-.16,1.23.07.3.72.58,1.12.64l8.54,1.31c2.32.36,4.61.32,6.67-.43l3.86,1.18c1.04.32,1.26,2.81.84,3.86l-3.87,9.69-1.53,3.31c-1.07,2.31-1.64,4.7-2.94,6.83-.93,1.52-1.77,3.33-2.34,4.92l-2.25,6.24c-1.69,4.69-3.26,9.45-4.32,14.4l-.58,2.72c.12,1.65.17,3.24-.07,4.88.49,1.29.77,2.84.74,4.39-.88,1.9-.32,3.46.29,5.29l1.42,4.31c.1.23,1.55-.08,1.75-.48l2.34-4.76,3.15-7.32,3.18-9.91,3.09-10.85,5.48-12.84,3.66-7.99c1.54-3.37,2.08-6.72,2.84-10.34l1.55-7.4,1.78-5.4,1.56-4.73c1.11-1.7,3.83-.38,4.88.84l2.67,1.85c1.33,2.33,2.31,5.17,2.24,7.85l-.11,4.35-.1,5.43-.41,4.89-.35,4.48-.28,5.97-.16,4.22-.03,9.61c0,3.01.67,4.17.91,3.89l.63-.76,3.41-5.11,10.99-19.04,5.7-7.82-.95-4.64-1.48-6.21-.39-3.19-.3-4.66c-.47-7.36,3.99-16.16,8.68-13.7,1.46.77,3.01.84,4.72,1.08,1.99.28,3.15,3.05,4.16,4.59,1.44,2.2,2.12,4.29,2.7,6.99-.28.29-.83.83-.48.46l-5.37-8.09c-.25-.37-.93-1.08-1.35-1.17-.52-.11-1.11.83-1.49,1.39-1.34,2.01-3.49,3.64-3.66,6.31-.06.99-.08,2.98.19,3.98l1.77,6.57.83,2.63,4.19,1.7c1.44.58,2.67,1.02,4.11.48l1.74-.65c.14-.05.95.23.91.39l-.28,1.13c-.46,1.89-2.67,2.36-4.49,1.8l-2.74-.84-2.57-.52-.46.66,1.13,4.88.46,2.57c.79,4.38,1.65,8.45,3.18,12.62l1,3.81c.37,1.4.48,3.07,1.08,4.15,2.03-.18,2.41-1.61,3.02-2.93l2.85-6.16c2.9-6.29,5.39-12.39,6.63-19.23l1.34-7.4,2.35-12.83,1.2-7.17,1.53-3.87.52-5.5.92-5.93.85-4.79,3.26-19.53,3.86-13.94,2.05-6.46,1.11-3.75.24-.79c.22-.75-3.11.16-5.99,2.03l-5.11,3.32-2.82,2.29-3.1,2.57c-2.43,2.02-4.99,3.59-7.89,4.91l-6.41,2.94c-2.91,1.34-5.89,2.04-9.01,2.65l-3.48.68c-1.22.24-2.11.29-3.52.18l-3.21.92c-4.32,1.23-7.1.77-11.05.1-2.3-.4-4.3-.58-5.5-3.05-1-2.05-4.21-3.27-5.85-6.61l-.16-3.01c-.15-2.91.65-6.09,2.33-8.47,1.2-1.7,3.59-1.96,5.21-3.11l4.27-3.04,5.49-2.44c2.49-1.1,5.07-1.21,7.78-1.39l3.63-1.87c.14-.07.97.29,1.03.37l.28,1.1c.22.88,1.41-1.73,3.15-.71,1.48-1.31,3.51-1.94,5.64-1.1,1.19-.64,2.5-.4,3.52.53,2.15-.92,4.05-.83,6.11-.39l7.15,1.55,3.99.68,3.54.22c5.66.35,11.11,3.11,11.61,2.73.24-.18.48-.6.68-1.04l3.03-6.62,2.85-6.61,1.59-3.62,1.9-4.5,3.77-8.13,2.3-6.11c.47-1.26,1.86-2.39,2.88-2.6,1.5-.31,2.91.14,4.06,1.07,1.95,1.57,1.99,4.23,1.39,6.93l-1.67,7.5-1,3.68-2.04,6.94-2.55,6.79-2.15,4.32-1.28,2.45c-.2.39.44,1.76.91,1.74l4.05-.15,1.5.33,5.11-.04,4.59.13,7.27-1.04,4.78-.83c2.47-.43,4.71-.8,7.07-1.62l4.75-1.63,6.26-2.36,4.16-1.9,3.07-1.49,8.5-5.65c3.04-2.02,5.68-4.18,7.82-7.33l4.13-8.05c1.16-2.26-.12-4.87-2.29-5.83-2.98-2.3-6.9-2.55-10.16-.69-2.85-.23-5.37.38-7.6,2.25-1.71,5.47.87,8.55-2.67,9.98-.35.14-1.29-.88-1.3-1.29l-.16-6.5c2.26-3.31,5.45-6.36,9.52-6.9l5.58-.73c1.62-.21,3.79.44,5.54.76s3.31,2,4.79,2.86c1.06.61,1.9,1.31,2.19,2.27.39,1.31-.34,2.09-.87,3.32l-1.95,4.5c-1.66,3.83-2.08,5.9-5.97,9.25l-4.7,4.04-3.97,3.17c-1.25,1-2.65,1.56-4.02,2.27l-7.63,3.94-4.53,1.54-9.95,3.21-4.46,1.56-4.53.39-4.63,1.61-9.69.23-3.44.09-5.1.53c-1.16-.28-2.75-.86-3.16.8l-1.79,7.2-2.04,7.67c-2.09,7.84-3.72,15.6-5.37,23.56l-1.61,7.77-2.58,13.78-2.87,13.9-1.97,10.16-.63,3.06-2.76,14.16-.64,5.26-2.23,14.27-.43,5.31c-.16,1.93-.49,3.65-.35,5.55.38,5.31,3.22,9.18,4.95,8.06,3.51-2.28,5.83-6.04,7.27-9.97l2.62-7.12,3.01-7.45,1.31-2.87c1.47-3.22,2.59-6.48,3.62-9.9l1.39-4.56,3.89-12.33,1.58-4.32,1.13-3.48c1.39-4.31,4.46-10.33,8.62-10.13l3.1,2.59,1.85,3.89c1.05,2.22,1.04,4.92.67,7.52l-1.05,7.48c-.02.16.53.72.63.61.14-.16.59-.67.64-.86l.86-3.44,1.74-5.29c.06-.19.13-.82.13-1v-.78c.02-.21.46-.14,1.03.02.18.06.84-.42.62-.45l-1.26-.63,1.68-6.37,1.2-3.87c1.05-3.4,1.48-6.76,2.74-10.12l1.64-4.4,3.87-8.15c.78-1.28,1.87-2.17,3.29-2.77.93-1.65,2.42-2.63,4.05-2.9,2.1-.35,3.46.73,5.04,1.7,1.15.71,1.7,1.05,2.46,2.2l1.77,2.69c.38.65.28,2.75,1.79,2.35l2.24-2.86,2.55-3.12,2.89-3.37c1.2-1.4,2.83.85,3.84,1.12l6.47,1.71c2.14,2.56,3.11,5.42,3.62,8.55l.58,3.6.14,4.84-.08,3.53-.81,8.55-.39,4.15-.37,4.08-.46,5.25-.72,5.62-.64,5.25,1.14,4.39c.11.43,1.1,1.02,1.53.84,3.29-1.36,4.17-4.33,5.41-7.96l3.41-10.04,1.37-5.81.32-2.33,2.45-10.45c1.11-4.71,2.42-8.77,4.49-13.15l1.8-3.81c2-4.24,5.28-7.33,10.25-7.53,1.76-.07,3.85-.9,5.26.72l2.38,2.74c.33.37.56,1.61.57,1.98l-.81.47-.39-.26ZM189.32,139.2l4.52-11.07,1.48-4.63,1.61-4.12,3.12-7.04,3.99-10.63,2.62-7.3,2.37-5.46,2.99-7.1,3.35-7.92,6.27-14.72c2.14-5.02,3.6-9.96,4.99-15.24l1.62-6.15,1.07-6.35-.02-5.38c0-1.03-.65-2.96-1.08-3.93l-2.65-5.92c-.15-.34-1.05-1.25-1.35-1.02l-1.03.8c-3.22-.05-5.81,1.89-6.91,4.97l-1.35,3.75-1.66,4.33-1.83,4.16-2.52,8.75c-1.07,1.74-1.79,3.51-2.02,5.5-1.33,1.84-2.39,3.87-1.85,6.28l-4.3,19.78-2.22,11.29-3.39,14.2-1.99,9.69-2.36,11.84-1.18,6.69-1.78,12.19c-.13.87.01,1.73.33,2.48.96-.84.76-1.7,1.17-2.72ZM103.16,43.53l2.14-2.69c.17-.22-.12-1.17-.31-.96l-.67.76-2.03,2.29c-.15.17-.31.95-.3,1.17,0,.15.41.26.51.15l.65-.71ZM306.69,68.95c3.06-.54,6.35-.68,9.1-2.25l8.08-4.62c2.56-1.15,4.87-2.47,6.77-4.5,4.23-2.19,7.88-4.89,11.49-8,.47-.4.98-.88,1.15-1.26s-.63-1.47-1.02-1.31l-1.42.58c-.73.3-2.35-.05-3.15-.06l-4.99-.06-5.95-.8-6.34-1.62c-2.2.6-4.34.38-6.42-.21-2.41.33-4.67.22-7.1-.08s-4.82.25-7.16.47c-1.51.14-3.01-.12-4.42.59l-4.03,2.02c-1.69.85-2.56,2.04-3.97,3.26l-4.15,3.62-3.31,3.41.04,3.09c.02,1.29.41,1.99,1.04,2.97,1.2,1.87,2.54,3.17,4.45,4.22,3.9,2.15,7.7,2.41,12.14,1.85l5.96-.75,3.18-.56ZM81.26,54.81c-1.69-1.12-2.89.25-2.64,1.09.12.41,1.38.47,1.66.14.32-.38,1.01-1.25.99-1.24ZM91.6,60.85c1.5-1.04,1.34-1.7,1.96-2.62l2.28-3.35c-1.43-.51-1.72.75-2.28,1.45l-.67.83c-.08.1-.23-.27-.3-.38l-.6-1.04-.15,2.79-.25,2.34ZM73.43,79.99c1.06-.66,1.64-1.33,2.04-2.28l.55-1.32c.09-.22-.73-.73-.89-.56l-2,2.21c-.32.36,0,1.53.3,1.94ZM71.95,99.41l1.12-1.98-1.2-1.68c-.22-.18-1.41.78-1.13,1.16s.7.88.58,1.12l-.45.92c-.1.21-.24.8-.28,1.03s.82.38.93.18l.43-.76ZM62.11,105.23c-.79-1.2-1.4-1.66-2-1.53-.56.11-1.34,1.59-.87,1.85.82.45,2.16.15,2.88-.31ZM233.72,131.83c3.64-6.71,6.27-13.37,7.94-20.74.19-.82-.32-2.4-.55-3.15l-1.09-3.5-4.87,5.79c-2.97,4.68-4.69,10-5.65,15.46l1.83,5.52c.14.44.5,1.02.78,1.25s1.44-.28,1.62-.61ZM54.08,112.25l-1.26,2.84c2,.58,2.36-.61,3.61-1.28,1.05-.56,2.52-1.2,2.72-2.32l.44-2.44-1.82.02c-.45,0-1.51.62-1.39,1.03.1.35.65.88.97,1.04l.96.48c.14.07-.37.83-.53.84-.63.03-1.88-.63-2.35-1.11-.28-.29-1.18.51-1.35.89ZM72.05,118.65l.49-2.59c.37-.53.67-1.15.48-1.51s-.76-.89-1.06-.77c-.37.14-1.21.9-.99,1.24l.76,1.22c-.4.2-1.32.95-1.03,1.2l1.35,1.2ZM54.48,120.59c.42.19,1.47-.4,1.54-.85.06-.38-.05-1.52-.24-1.86-.23-.4-1.31.43-1.54.93-.19.42-.39,1.49.24,1.78ZM64,124.35c.73-.11,1.37-.25,1.46-.51s-.05-1.06-.32-.99c-.22.05-.78.19-.74.19.31-.8.48-1.25.5-1.85.02-.51-.62-.64-1.41-.29l.52,3.46ZM54.64,125.09l-2.87-.46-.3,2.22c1.5.1,2.63-.57,3.17-1.76ZM52.11,130.44c.08-.24-.54-1.14-.74-1.37-.88,1.14-1.26,2.55-.16,4.03l.9-2.67ZM384.86,142.97l-.98-.37c-.14-.05-.17.58-.09.72l.96,1.85c.2.38,1.24-.45,1.24-.93,0-.42-.67-1.1-1.13-1.27ZM491.8,181.9c1.46-.98,2.27-2.07,2.66-3.57,1.79-1.38,2.98-3.12,3.18-5.43.15-1.76,2.08-3.59,2.46-5.3l1.31-5.96-.02-6.41.65-5.26,1.9-.68-1.38-.23c-.27-.04-.27-.93-.29-1.21l-.24-3.59.05-.99c0-.21-.52-.4-.72-.33s-.63.64-.61.84l.25,2.36-6.66,5.8-3.13,3.59-1.39,2.24c-.76,1.8-1.55,3.75-2.63,5.3-2.05,2.94-2.71,5.98-3.46,9.44l-.91,4.18c.48,2.23,1.99,4.18,3.51,5.84l3.54.54c.49.07,1.5-.8,1.94-1.18ZM337.26,147.52c-1.61-.84-1.56-.88-2.69-1.98l-.63,3.32c1.53.03,3.06-.58,3.32-1.35ZM373.89,151.37c1.8-1.13,1.58-2.99.63-3.97-.98,1.17-1.2,2.81-.63,3.97ZM47.86,160.24l-.06-1.32c0-.16-.76-.33-.9-.25-.51.3-1.07,1.54-1.02,2.29.02.4,1,.94,1.39.84s.62-1.09.6-1.56ZM200.73,183.19c.27-.56.71-1.48.88-2-1.16.16-1.86,1.08-2.05,1.75-.23.82,0,2.24.89,2.33.54.04.23-1.59.28-2.08ZM302.38,213.28c1.23-1.19,2.22-2.29,2.82-3.78l1.52-3.79c.68-1.69.97-3.5,1.04-5.37l.21-6.39.17-4.08c.1-2.33.42-4.29.02-6.76-3.39,2-5.82,4-8.23,6.52l-4.05,4.21c-1.05,1.09-2.03,2.01-2.73,3.28l-2.56,4.63c-1.73,3.13-1.44,7.21-1.95,10.75-.37,2.58.28,4.69,2.81,5.61,5.12,1.88,7.29-1.29,10.93-4.83ZM39.98,217.25c2.21-2.21-.57-4.08,1.9-6.73.4-.43-.62-1.78-1.03-1.53l-1.29,2.16c1.39,1.6-.81,2.59.42,6.1ZM178.68,214.21c.06-.24-.1-.91-.24-1.11s-1.01-.22-1.08,0l-.38,1.11c-.11.33.06.99.3,1.21.2.18,1,.38,1.07.12l.33-1.34ZM46.42,225.82c1.35-.86,2.44-2.47,1.76-4.48l-1.41,2.42-.73.92c-.16.2.16.71.38,1.14ZM43.58,240.81c.14-.41-.19-1.33-.5-1.49-.25-.13-1.02.45-1.07.73-.12.71.07,1.99.27,2.72.71-.57,1.01-1.07,1.3-1.95ZM54.84,261.21c.04-.4.13-1.29.12-1.25l1.54.38c.28.07.59-.97.6-1.31,0-.62-1.46-1.41-2.11-1.3l-1.15,2.16.44,2.85,2.43,1.25c.28.34,1.01-.9.83-1.48-.42-1.37-2.77-.59-2.69-1.31Z"/>
      <path class="cls-1" d="M486.55,321.1c-1.25,2.44-2.16,5.07-3.36,7.88l-1.62,3.76-2.88,6.48-3.92,8.34c-1.32,2.81-4.45,3.93-7.33,4l-2.7.07-5.24.97-.48-1.8c-.04-.16-.77-.36-.82-.2l-.48,1.4-2.97-.96c-2.36-.76-3.62-1.5-5.16-3.62-1.09-1.51-2.13-3.33-1.68-5.1.42-.14,1.24-.42,1.12-.38-.67-.34-1.36-.71-1.34-1.03.18-.81.49-2.39.39-3.19-.22-1.81.65-3.18,1.05-4.75l2.06-8.1c.92-3.63,3.01-6.57,4.9-9.71l3.35-5.54,4.15-5.78,3.65-4.24,2.2-2.33,3.3-3.03c2.65-2.43,6.06-3.76,9.3-5.37l2.88-.17c3.8-.23,8.78-.88,10.95,2.08-2.81,2.29-5.5,2.82-8.8,5.34l-3.21,2.45c-1.41,1.07-2.24,2.21-3.02,3.8l-5.08,10.28c-1.81,3.67-3.5,7.03-4.92,10.88l-2.22,6-1.63,4.73c-1.31,3.8-.96,7.93,1.26,11.32l2.55-2.29c.75-2.62,2.16-6.67,3.9-7.83l1.19-2.36,2.21-5.33,4.96-10.79c1.59-3.46,2.57-7,5.15-9.98,1.08-1.25,3.29-3,4.95-3.15,3.01-.26,5.24,2.03,7.12,3.76,2.52,2.32.13,4.64.27,7.39l.21,4.22c.15,3-.31,5.7-.62,8.69l-.42,4.09.02,7.01c0,2.42,1.57,4.95,3.61,5.95,1.58.78,3.05-.14,3.79-1.29l1.94-3.02c2.31-3.59,3.53-7.52,4.95-11.52l3.92-8.43,2.23-4.97,3.73-8.93,2.96-8.29,2.66-6.78,4.44-12.49,2.09-4.22,1.32-3.63,2.53-6.39,1.88-4.18c.28-.62.6-1.94.55-2.67-3.08-1.96-5.19-1.67-8.83-4.34l-4.98-3.65c.15-1.26-.47-1.86-1.52-1.93-1.75-2.33-1.53-5.38-.85-8.15-.37-1.52-.23-2.64.3-4.19l2.01-2.16,5.21-7.9c1.5-2.28,2.74-4.54,4.82-6.52,2.73-2.59,7.52-3.77,10.71-1.51,2.57,1.83,2.28,5.26,2.74,7.94l.59,3.43-.34,6.24c-.1,1.9-.71,4.07-1.31,5.78l-2.37,6.69-1.66,4.49c2.24.6,4.36,1.41,6.43,1.32l5.15-.23,8.97-1.18,7.19.07c1.01.01,1.58.56,2.37,1.14,1.39,1.02,2.88,1.95,3.05,4.15.26,3.26-.91,6.5-2.37,9.52l-3.96,8.18-1.43,2.64-1.42,2.66-5.05,9.5-2.24,5.55-1.01,3.52-1.63,3.67-3.75,9.81-1.29,4.02-2.43,7.34c-.39,1.18-.68,2.48-.7,3.79l-.05,4.53.36,6.06c.12,2-.13,4.17.41,6.08.26.91.33,1.56.35,2.58l1.7,3.19c1.01,1.9,2.18,3.51,4,4.78l4.01-4.12,7.02-12.49,1.78-3.46,3.02-5.27c2.12-3.71,4.1-7.3,5.53-11.36l4.87-13.84.85-2.91,4.5-12.76,2.56-7.9,3.95-10.95c1.4-3.87,3.48-7.16,5.69-10.5,2.69-4.06,6.05-6.37,10.67-7.9,3.34-1.1,6.58-2.01,10.04-.05l4.25,2.41c.84.47,1.53,1.19,2.21,1.88,1.9,1.93,3.04,3.92,3.63,6.6l.61,2.77,1.58,5.22c1.17.1,2.52-.14,3.71-.44l3.08-.79c3.14-.8,6.33-1.86,9.09-3.67l6.81-4.45c1.04-.68,1.33-2.37,3.51-1.79.88-2.98-1.8-5.77.62-7.83.16-.14-.46-.49-.73-.72-.55-.48-.27-2.1-.33-2.94l-.6-8.44c-.33-4.58-.46-9,.49-13.5-.35-3.46-.58-6.87-.12-10.29l.11-14.09c.01-1.72.5-3.22.62-4.92l.34-4.8.09-6.75.38-7.17-.19-4.37c1.04-2.93,1.59-5.69,2.1-8.73l2.22-13.15,1.94-11.59c.55-3.3,1.66-6.24,2.55-9.48l1.02-3.68c.91-3.27,1.15-6.42,2.23-9.64l2.83-8.42c.64-1.92,1.7-3.71,2.63-5.53,2.08-4.08,4.72-7.87,8.99-9.82,1.81.23,3.35-.07,4.74-1.42l4.05.96c3.15.75,5.16,5.85,4.36,9.56l-1.68,7.77-2.19,10.88-.8,3.75-1.56,6.69-3.02,9.98-2.5,7.24-1.56,3.3-4.81,14.74-3.77,8.55-1.02,3.16c-.29.9-.62,2.77-.6,3.73l.14,7.09-.19,4.61-.14,11.25-.03,4.58c0,.47-.23,1.52-.4,1.98l-.02,9.92.28,8.25.16,5.96-.11,4.64.78,8.54.47,10.5,1.74,23.92.63,4.96,1.31,16.23c.17,2.07,1.27,4,2,5.89s1.19,4.48,3.15,5.47c1.47.75,2.98-1.12,4.09-1.54,3.25-1.23,5.3-3.23,7.45-5.83,1.83-2.2,3.7-4.29,4.95-7l4.85-10.51,4.9-10.83,3.03-8.87,1.46-4.33,4.64-13.33,1.76-5.04,7.11-19.49,2.72-6.6c.14-.33.39-1.45.73-1.35l1.5.45c.18.3.5.84.31.52l-1.85,4.37c-.52,1.23-.82,2.29-1.51,3.42-1.99,3.27-2.85,6.93-4.09,10.57l-2.74,8.05-.81,3.33-1.67,4.66-3.04,9.71-3.19,10.09-2.51,6.76-2.65,7.84-4.3,10.39-2.99,5.69-2.74,3.96c-1.77,2.57-3.39,5.87-6.65,6.73l-5.51,1.45c-2.44.64-5.7.29-8.15-.64l-4.41-1.67c-2.65-1-3.86-3.89-4.27-6.44l-1.84-2.34c-.78-.99-1.51-1.7-1.96-2.91l-1.52-4.09-2.4-7.37-1.44-4.51-1.16-3.68c-.5-1.6-.26-4.04-.48-5.82l-1.01-8.09-.85-9.65-1-.9c-1.2,1.38-2.43,3.12-2.81,4.68-.54,2.23-1.7,2.5-3.52,3.06l-7.82,2.4-7.09,2.23-4.1,1.11-1,2.56-.56,4.09-1.05,7.78c-.46,3.4-2.57,6.57-3.86,9.75-1.17,2.88-2.03,6.02-4.03,8.34l-4.7,5.45c-.97,1.12-1.39,1.35-2.74,1.93-2.91,1.26-5.93,2.12-9.12,1.29l-2.71-.71-6.69-3.53c-1.51-.79-2.94-4.98-4.71-6.97-2.33-2.63-2.95-6.66-3.66-6.16-.17.12-.66.59-.74.8l-2.1,5.56-2.3,6.05-7.58,17.15-1.92,3.33-2.78,5.47-5.39,11.87c-1.41,3.11-3.71,5.94-6.73,7.52-2.2,1.15-4.6,3.26-7.12,3.18-2.24-.08-8.79-1.85-10.3-3.22l-2.8-2.53c-.69-.63-1.62-2.33-1.93-3.21l-2.72-7.53c-.52-1.44-.11-3.57-.06-5.12l.15-4.66.31-2.76,1.42-5.27.45-3.07.97-4.18,1.65-5.12,1.83-5.09,2.42-6.57,1.1-4.07,1.54-4.13c.39-1.05.98-2.85,1.96-3.38l1.38-.75c.34-.18-.38-1.18-.79-1.56l1.57-.67-.76-1.32c-.22-.38.5-1.3.7-1.7l2.6-5.39,1.76-3.48,3.33-6.71c.99-2,2.48-3.51,3.98-5.04l2.77-2.83,1.88-2.01,1.07-2.54c.11-.26,0-1.16-.24-1.2s-1.19-.09-1.41.03l-4.5,2.44-3.63,1.36c-2.13.8-4.05,1.2-6.27.97-5.78,2.06-9.79-2.2-11.1,1.08l-2.44,6.11-3.19,9.22-3.63,12.39-3.59,9.39-1.62,4.35-1.14,3.76-3.03,9.83-2.02,4.26-2.31,5.18-2.33,5.97-1.26,3.86-2.37,5.44c-.83,1.91-2.36,3.91-3.75,4.1-.79.11-1.04.21-1.44.93l-1.59,2.89c-.42.77-1.46-1.32-1.72-.83l-.48.88c-.28.51-.65,1.29-1.06,1.45-.82.33-4.78-.2-6.31-.86-4.77-2.07-7.26-6.28-9.2-10.74-1.09-2.5-1.72-4.51-1.79-7.37l-.12-5.44c-.03-1.35.39-1.66-.44-3.87ZM680.77,162.3c.67.4,1.21-.22,1.5-.93l3.52-8.46,1.8-4.31,7.44-20.67.89-5.12,1.95-7.79,2.46-9.89.87-6.61c.1-.77-.58-2.13-1.13-2.54-2.5-1.88-9.82,4.5-11.08,11.39l-.75,4.07-.57,3.22-1.09,3.33-1.11,9.24c-.78,2.16-.73,4.34-1,6.74l-.71,6.34-1.2,8.81-.82,5.98-.98,7.17ZM545.35,251.79l2.81-7.87c1.86-5.21,2.49-15.94-.03-17.25-.63-.32-2-.36-2.56-.05l-2.54,1.41c-2.09,2.56-3.65,5.68-4.08,9.03-.53,4.16-1.6,5.51,1.06,10.69,1.01,1.97,3.17,2.95,5.34,4.04ZM630.63,272.35l1.35-.19c.16-.02.05-.79.02-.97l-1.7-11.01c-.75-.62-2.15-1.23-3.25-1.16-1.3.07-5.98,5.35-4.2,9.76,1.23,3.03,4.54,4.03,7.78,3.57ZM617.12,311.09c6.24-4,9.49-11.05,11.4-17.82l1.15-4.07,2.59-13.2c-7.84,1.95-11-2.08-12.67-1.75-.42.08-1.26.83-1.36,1.32l-1.51,7.84-.59,7.34-.34,3.73c-.38,4.17-.8,8.13-.64,12.33-.77,1.76-.13,3.7,1.98,4.28ZM544.77,351.82l.6-.6c.41-.41-1.64-1.34-2.1-3.25l-1.15-4.67c-.73-2.95.35-4.01-.78-4.82-.21-.15-.93.04-.95.29l-.1,1.26c-.06.73.4,1.99.69,2.64-.37,1-.23,1.95-.03,3.07l.48,2.69c.15.82,3.34,3.37,3.34,3.38ZM458.95,346.49c-.14-1.18.47-2.59,1.09-3.01.25-.17-.03-1.11-.32-1.07-.22.03-.85.31-.95.51l-1.08,2.31c-.13.28.23,1.14.42,1.43.14.21.86.11.84-.16Z"/>
      <path class="cls-1" d="M464.06,370.38l.96.56-3.31,11.11c-.72,2.4-1.15,4.5-2.27,6.83-1.22,2.55-2.11,5.58-2.81,8.37l-1.06,4.26-2.2,6.14-1.5,2.99-2.61,6.35c-1.16,2.81-2.32,5.37-4.35,7.69l-.71,2.22-4.72,6.92-1.97,2.93c-1.54,2.41-3.62,4.32-5.88,6.13-.74,2.71-2.47,4.84-4.65,6.48l-2.21,3.46-3.28,3.56-3.66,3.29c-2.33,2.82-4.67,5.02-8.34,5.69-.55.75-1.45,1.38-2.28,1.85-3.87,2.19-6.47,3.03-11.09,2.72l-8.76-.58h-3.06c-2.02-1.33-3.8-.83-3.78-1.22l.04-.73c.02-.36.16-1.44-.19-1.41l-1.78.11c-.01-.72-.99-2.29-1.87-1.63-.21.92,1.38,2.24,2.2,2.4.22.04.24.92.02.88l-2.33-.37c-3.75-1.72-7.27-3.82-10.36-6.43l-7.28-8.88-1.32-2.09-1.25-2.12-2.4-4.72c-.41-.38-1.58-1.05-1.87-1.58l-2.25-4.01-1.37-2.1-2.29-4.33c-.59-.51-2.05-1.53-2.37-2.24l-2.35-5.17c-.56-1.23,1.58-1.34,1.04-2.61-.14-.33-.79-.34-1.44-.33-.38-.06-.95-.96-1.08-1.43-.26-.95.76-1.3,1.12-2.83.16-.67-1.95-.64-1.7-1.42.09-.27.43-.79.65-.96.28-.21.82.58,1.28,1.1.44.06.42-1.19.04-1.73-.4-.57-1.1-.6-2.18-.15l-1.15-2.25c.4-.85.5-1.58.16-2.29l-1.92-3.94c-.77-1.58-1.2-3.46-1.39-5.31l-1.24-11.91-.8-10.07.08-4.04.13-4.9-.18-4.82-.05-2.26.18-8.55.39-8.26-.08-2.28.05-2.98.37-4.89.34-4.5.65-5.78,1.21-7.02,1.09-5.67,1.61-5.22,3.64-11.71,1.73-6.6c.27-1.01,1.03-1.84,1.15-2.95l.38-3.65c1.24-1.16,1.58-2.18,1.14-3.81l1.68-4.31c.38-.97.92-1.41,1.94-1.98l-.87-.2c-.14-.03-.2-.26-.1-.33l.6-.41c.28-.19,1.24-.66,1.09-.96l-.68-1.44,4.83-12.23,1.16-2.81,1.26-3.36,1.47-4.1,1.15-2.97,1.43-3.1,1.8-3.73,1.95-4.13,1.37-2.33,3.2-7.02,6.25-11.73,5.85-9.12c2.8-4.36,5.21-8.58,8.56-12.53l6.7-7.89c2.86-3.37,6.38-5.9,10.03-8.38l2.92-1.98c2.2-1.49,4.23-3.4,6.75-4.43l10.1-4.14,5.34-1.69,4.09-.66,3.08-.24c2.08-.16,4.3.47,6.37.95l5.94,1.37c4.09.95,7.97,3.29,11.4,5.73l2.72,1.93c1.21.86,2.74,2.73,3.56,4.06,3.05,4.9.32,9.92.66,13.25.4,3.88-.73,7.1-1.58,10.74l-1.35,5.79c-.42,1.81-1.9,2.52-2.89,3.94-2.24,3.22-5.16,6.11-9.63,5.87l-4.14-.23c-2.49-.14-4.16-4.41-6.6-4.63-1.21-.11-2.05-.32-2.62-1.12-.87-1.22-.05-3.98,1.33-4.56.5-.21,1.52.67,1.86,1.18l3.03,4.52c1.39,2.08,4.31,3.07,6.58,2.32,6.12-2.03,9.82-7.51,10.24-13.75l.3-4.37.16-3.04.35-5.65.68-3.52c.21-1.08-.76-3.24-1.5-4.05l-3.86-4.21c-1.94-2.12-4.95-3.4-7.46-4.83l-3.61-2.06-3.63-.08c-1.93-.04-3.86-.55-5.56.1l-4.14,1.6c-3.08,1.19-5.47,3.7-7.91,5.87-1.85,1.65-4.15,2.72-6.38,3.75-.43.99-1.04,2.39-1.71,3.06l-2.68,2.68-3.56,3.56c-2.48,2.48-4.45,5.1-6.12,8.15-1.92,3.51-5.01,5.73-6.3,8.95l-2.49,6.23-2.47,6.16-1.83,4.15-2.38,7.02-2.66,8.23-4.44,15.44-2.2,9.31-1.46,7.56-1.05,4.22-3.2,14.41-2.15,7.55-1.86,7.99-1.06,4.83c-.48,2.19-1.13,3.88-2.09,6.01l-.33,5.03c-.08,1.26.03,2.19-.18,3.33l-1.3,6.88-.8,6.78-.25,2.96v5.25s-.17,4.45-.17,4.45l-.22,5.6-.16,3.03c-.75,1.86-.47,3.79.04,5.47l-.02,8.39c0,1.24-.09,2,.05,3.23l.82,7.4,1.42,13.59,1.51,6.02,4.32,14.8,2.48,8.37.95,2.88,3.87,9.72c1.08,2.71,1.92,5.6,3.46,8.12.96,1.58,2.89,2.72,4.13,4.11l4.01,4.47c1.07.49,1.77.99,2.01,2.32l5.51,3.5c.87.55,2.48.1,3.36-.15.85.53,2,1.12,2.97.85l-.46-2.2,5.63-2.97c1.77-.93,5.72-4.7,7.42-6.86l3.96-5.01,3.75-4.13,3.94-4.35,5.31-5.94,4.91-7.04c2.78-3.98,5.13-8.38,6.95-12.84l3.29-8.02,1.22-3.64,2.37-5.53,1.73-5.47c1.6-3.08,2.77-5.97,3.85-9.23.54-1.63,1.35-3.04,2.35-4.67ZM386.23,223.48l2.68-5.53c-2.41-.28-2.22,2.1-2.88,3.34l-1.08,1.4c-.25.32,1.09,1.18,1.28.78ZM386.09,225.06c-.96.14-1.73.44-1.92.74l-.83,1.33c-.15.24.44.81.72,1.03l2.02-3.11ZM383.52,232.69l1.04-3.01c-.48-.1-1.33-.16-1.46.12l-.45,1.01c-.15.33-.35,1.17-.42,1.56-.07.36,1.15.73,1.29.33ZM368.17,237.11l.07-1.17c.01-.2-.66-.49-.78-.32l-.61.83c-.37.5-.81,1.82-.74,2.37,1.09.58,2-.71,2.06-1.71ZM368.34,245.26l.65-3.79c.16-.16.56-.54.43-.67-.09-.09-.45-.35-.5-.36s-.2.49-.28.62l-1.44,2.41c-.34.76-.59,2.22-.77,3.32l1.58-.08c.32-.02.26-1.12.32-1.45ZM362.56,250.16c1.86-1.22,2.23-3.07,1.72-4.98l.76-1.16c.15-.23-.91-.58-1.13-.55l-.55,2.09c-1.34.57-2.3,1.69-2.68,3.06l1.88,1.54ZM362.95,254.43c.04-1.23-.54-1.66-1.52-2.34l-1.41,1.44,2.93.91ZM373.24,263.37c.21-.38.61-1.42.27-1.57-.28-.12-1.03-.33-1.4-.38-.41-.05-1.39.64-1.47,1.05-.15.76,1.8,2.37,1.98,2.03l.62-1.13ZM367.37,268.16c.22.28.82-.99.66-1.34l-1.07-2.4-2.91.91,1.29,2.04c.5-.19,1.02-.44,1.19-.23l.83,1.02ZM364.15,272.51c-.23-.3-.66-.71-.93-.91s-1.26.27-1.32.6l-.25,1.4c-.11.62,3.08-.35,2.5-1.09ZM363.1,277.97c-.09-.86-.32-1.57-.12-1.83l.9-1.14c-.52-.09-1.72-.04-1.9.35l-.65,1.4,1.76,1.22ZM349.49,318.3l.63-1.96c.11-.34.19-1.2.18-1.55s-1.47-.03-1.5.3l-.13,1.35c-.17.18-.75,1.11-.44,1.26l1.26.59ZM346.05,424.45l1.97-2.32c.25-.29-1.07-1.34-1.2-.99l-.53,1.33c-.12.31-.55.83-.85.72l-1.23-.46c-.67.62,1.31,2.35,1.84,1.73ZM348.92,426.76l.71-1.54c-.34.04-1.31.49-1.34.84l-.1,1.52c-.06.99-.29,3.05,1.58,2.98,1.68-.06-1.16-3.16-.86-3.8ZM372.36,433.51c1.42-1.67-.57-2.2-.92-2.88-.5-.98-1.39-2.27-2.65-1.65-.55.27.67,1.49,1.08,1.93l2.48,2.6ZM354.41,435.86c-1.6-1.47-1.02-2.53-2.34-3.84-.21-.2-1.33.29-1.24.57l.75,2.3,1.33,4.24,1.5-3.28ZM354.96,439.38l2.11-1.03c.23-.11.49-.59.54-.83s-.6-.78-.78-.62l-1.49,1.27c-.28.24-.99.54-.8.75.15.17.62.69.42.47ZM360.53,441.14c.41-.08.17-1.31-.08-1.6-.21-.24-.84-.7-1.12-.5-.46.32-.99.79-1.16,1.12s.34,1.36.71,1.29l1.64-.31ZM372.68,454.83l.69-.78c.15-.17-.51-.83-.69-.69l-.87.66c-.42.32-.84,1.5-.56,1.92s1.04,1.18,1.27,1.3l-.32-1.75c-.04-.2.25-.41.48-.67ZM386.59,457.47c.17-.27.49-1.36.23-1.54l-1.04-.7-.73,2.83c-.08.24.58.94.73.7l.81-1.29ZM394.38,462.26c.3.28,1.15-.38,1.07-.77-.25-1.32-1.39-.35-3.22-1.88-.17-.14-.86.2-.73.39.64,1,1.03.56,2.88,2.25ZM405.27,462.7c-1.96.5-3.03-1.1-5.29-.4,1.83,2.19,4.53,1.63,6.63,1,.01-.36,0-.94-.16-.9l-1.18.3Z"/>
      <path class="cls-1" d="M52.14,40.13c-1.49,3.09-2.54,6.12-3.78,9.31l-2.1,5.39c-.62,1.58-1.83,2.67-3.44,2.86l-1.33,2.66-1.08-1-.98,1.87c-1.8.01-4.09-.07-5.56-1.14-1.28-.93-2.72-2.23-3.53-3.55-3.6-5.9-3.03-8.19-3.28-15.1-1.34,2.11-1.88,4.21-2.86,6.38l-1.52,3.34c-3.09,6.81-3.69,12.25-10.94,11.59l-3.58.67-.86-1.55-.66,1.14c-.05.08-6.57-1.19-6.63-6.33-.03-2.72.28-5.03.93-7.61,1.03-4.02,2.19-7.66,4.4-11.15l2.6-4.1c1.08-1.71,2.11-3.3,3.43-4.81,3.33-3.83,4.61-5.53,9.34-8.37,3.22-1.94,10.03-2.8,12.78-.23l-3.8,2.23c-1.84,1.08-4.3,2.61-5.75,4.2-2.79,5.18-5.91,10.86-7.91,16.22l-1.54,4.11-1.39,4.19c-.81,2.44-.36,5.02.95,7.28l1.95-1.73c.52-1.96,1.23-3.61,2.43-5.27.93-1.29,1.51-3.16,2.24-4.75l3.88-8.44c1.79-3.91,2.59-7.48,7.1-9.06,2.34.58,4.11,1.91,5.78,3.76-1.26,3.14-.49,6.14-.69,9.33-.28,4.4-1.28,8.52-.39,12.88.28,1.36,2.37,3.88,3.8,2.72,3.25-2.64,4.16-7.23,5.85-10.9l2.74-5.97c1.5-3.27,3.02-6.5,4.27-9.88l2.03-5.5c1.06,3.28-.19,8.7-1.48,11.38l-1.42,2.95Z"/>
      <path class="cls-1" d="M853.57,392.01c.16-.63.48-1.1,1.4-1.05l-.7,10.74h-26.13c.75-1.52,1.66-1.15,3.19-1.56l-2.34-9.9c-2.59-.3-4.81-.3-7.51-.05l-2.06,8.12c-.1.39.06,1.63.43,1.75l1.54.49.77.23c.2.06.2.47.18.9l-6.94.05c-.25,0-1.09-.42-.92-.58,1.09-1.03,2.6-.38,3.44-2.97l7.5-30.23c.15-.22.5-.78.65-.67l.76.56,7.59,30.53c.33,1.29,1.32,2.26,2.71,2.24,1.17-.02,2.28-.32,3.43-.84l-.02-30.17c-1.41-.52-2.47-.2-3.46-1.71l9.09-.16c.33,0,.95.34,1.11.48.9.75-2.38.55-3.36,1.75l-.02,27.59c0,.46.37,1.69.71,1.98.97.84,2.98,1.21,4.33.79,1.17-.37,2.9-1.5,3.27-2.96l1.34-5.33ZM828.53,388.48l-3.27-13.33-3.39,13.43,6.66-.09Z"/>
      <path class="cls-1" d="M731.01,400.03l-1-28.97-7.5,29.65c-.15.23-.5.67-.65.55l-.74-.57-7.45-29.62-1.14,26.87c-.07,1.61.95,2.36,2.37,2.66l.81.17c.25.05-.27.94-.59.94h-6.85c-.17-.01-.78-.51-.66-.61,1.16-1.02,3.34-.38,3.44-3.23l.98-28.05-2.59-.98-.83-.4c-.24-.11.55-.69.82-.69l5.45-.05c.6.12,1.38.61,1.83,1.1l6.05,24.44,6.51-25.3,6.47-.25c.29-.01.87.33,1.02.49.78.78-3.34.81-3.3,1.95l1.01,29.78,2.74.78c.12.03.48.36.57.44.77.61-6.5.93-10.19.28.88-1.04,1.74-1.05,3.43-1.39Z"/>
      <path class="cls-1" d="M692.59,368.09c-1.12.7-1.5.84-2.64,1.31l-2.38,7.68c-.79,2.54-1.12,5.15-.44,7.72l2.46,9.37,5.84-23.18c.25-.99-.44-1.98-1.43-2.04-.29-.01-.75-.63-.74-1.13l6.14-.07c.15,0,.62.77.48.81l-.71.2c-.95.27-1.86.87-2.15,2.01l-8.11,32.02c-2.67-5.67-2.71-11.01-4.78-16.46-2.13,5.45-2.45,10.73-5.2,16.45l-8.07-31.63c-.67-2.62-4.21-2.39-3.36-2.98.18-.13.76-.46,1.06-.45l8.11.22c-1.04,1.05-1.57,1.17-2.69,1.73l6.05,24.86,2.6-8.6c.57-1.87.52-4.07.05-5.97l-2.3-9.37c-.23-.93-.97-1.59-2.14-1.75l-.38-1.04,7.02-.06c.17,0,.86.35.77.47-.75,1.06-2.36.8-2.07,1.94l2.11,8.16,2.56-8.73-2.23-1.62c2.77-.31,4.12-.36,6.57.14Z"/>
      <path class="cls-1" d="M643.19,400.69c0,.39-.33,1.52-.6,1.42l-1.52-.56-13.36-28.72-.21,25.11c-.01,1.61.99,2.61,2.64,2.56l.69.64c.14.13-.62.58-.88.58l-7.18-.07c-.54-1.67,3.23-.68,3.23-3.37l.02-28.36c-.73-.52-1.66-.86-2.43-1.03l-.81-.17c-.21-.05.05-.91.27-.92l4.73-.12c1.18.1,2.01.62,2.5,1.63l11.23,24.48.17-22.43c.01-1.38-1.03-2.44-2.42-2.38l-.84-.54c-.24-.15.57-.71.89-.71h6.35c.22.01.78.33.91.48.78.85-3.42.04-3.41,3.5l.03,28.98Z"/>
      <path class="cls-1" d="M659.35,385.43c-1.07-.96-2.97-.63-4.49-.42l-.02,12.56c0,2.12,1.61,2.86,3.45,2.94,2.63.12,5.5-.66,6.24-3.44l1.26-4.73.17-.71c.05-.22.96-.2,1,.02l.15.9-.65,9.15-18.58-.07c1-1.44,2.02-1.22,3.56-1.71l.03-29.97c-.72-.52-1.57-.81-2.39-1.1l-.91-.32c-.19-.07.4-.74.53-.8l17.09.06.45,9.6-.96.16-1.09-4.27c-1.16-4.54-6.88-5-8.61-3.72-.43.32-.77,1.47-.77,2.09l.04,11.63c1.55.2,3.25.38,4.51-.4,1.47-.91.75-3.57,2.11-4.64.21-.17.72.74.72,1.01l-.02,10.39c0,.24-.54,1.01-.69.86-1.39-1.39-.72-3.78-2.14-5.06Z"/>
      <path class="cls-1" d="M755.24,367.74l6.88.02c.15,0,.66.75.52.81l-.96.36c-1.22.45-2.3.95-2.3,2.42l-.09,22.16c-.02,4.98-3.53,8.51-8.24,8.69-4.28.16-8.59-3.26-8.63-8.14l-.17-24.12c-.72-.99-1.9-.56-3.29-1.48-.22-.14.55-.71.87-.71h8.19c.24,0,.84.33.99.47.83.75-2.32.55-3.36,1.74l.08,24.14c.01,3.62,2.68,6.04,5.74,6.14,3.3.11,6.23-2.37,6.24-6.07l.1-22.81c0-2.26-1.88-2.05-3.39-2.81-.21-.11.58-.79.83-.79Z"/>
      <path class="cls-1" d="M773.77,401.88c-3.18.71-6.26.19-8.89-1.45l-.28-7.95c-.01-.33.52-1.3.7-1.11,1.52,1.53,1.44,10.43,8.2,9.27,1.95-.33,3.47-2.06,3.83-4.33.62-3.89-1.11-7.29-4.07-9.91l-6.14-5.43c-2.86-2.53-3.35-7.32-.91-10.42,3.07-3.9,8.83-4.2,12.68-1.54l-.06,8.88c-2.61-2.64-2.13-9.72-7.1-9.15-2.03.23-3.59,1.55-3.92,3.81-.37,2.55.7,4.87,2.62,6.62l5.86,5.35c2.28,2.08,3.79,4.78,4.11,7.82.47,4.43-2.12,8.52-6.64,9.53Z"/>
      <path class="cls-1" d="M605.96,390.27c-2.57-.36-4.92-.35-7.54-.04l-2.03,8.07c-.08.31.04,1.28.2,1.52.67,1,2.87.26,2.89,1.82l-7.39.09c-.22,0-.72-.52-.61-.6,1.27-.95,2.7-.63,3.39-2.85l7.5-30.28.64-.69c.18-.19.71.42.84.69l7.52,30.28c.38,1.36,1.3,2.03,2.56,2.38l.69.19c.18.05-.08.75-.16.87l-9.29-.09c.51-.89.99-1.07,1.58-1.19l1.09-.22c.23-.05.3-.96.22-1.3l-2.09-8.67ZM605.5,388.48l-3.29-13.55-3.4,13.62,6.68-.07Z"/>
      <path class="cls-1" d="M799.8,376.38c-2.01,9.04-.71,24.23,7.14,24.35,1.44.02,3.4-.77,3.93-2.43l1.89-5.94c.09-.28.42-.8.59-.98.23-.23.78.75.77,1.12l-.28,8.05c-3.38,1.77-7.28,2.27-10.83.75-8.08-3.45-9.52-17.76-5.91-26.41,1.52-3.64,4.24-6.55,8-7.36,2.88-.62,5.69-.07,8.36,1.37l.24,7.52c0,.24-.27.93-.36,1.09-.13.24-.8-.32-.91-.64l-1.9-5.51c-.41-1.2-1.83-2.19-2.74-2.44-3.89-1.03-6.97,2.97-7.97,7.47Z"/>
      <path class="cls-1" d="M792.59,401.39c-3.82.76-11.17.26-10.21-.26l.8-.44,2.54-1.03v-29.98s-2.67-.89-2.67-.89l-.64-.31c-.18-.09.48-.75.74-.75l9.36.14c-.9,1.57-2.04,1.18-3.42,1.73v30.37c1.49.36,2.46.42,3.5,1.42Z"/>
    </g>
  </g>
</svg>